<svg xmlns="http://www.w3.org/2000/svg" viewBox="0 0 1014 260" width="1014" height="260" role="img">
  <defs>
    <style>
      .bg { fill: #ffffff; }
      .head { fill: #f5f7fb; }
      .line { stroke: #c3ccdb; stroke-width: 1; }
      .cell { font-family: Consolas, "Courier New", monospace; font-size: 13px; fill: #1f2933; }
      .title { font-family: Consolas, "Courier New", monospace; font-size: 11px; fill: #5b6673; }
    </style>
  </defs>
  <rect class="bg" x="0" y="0" width="1014" height="260" />
  <text class="title" x="12" y="24">TabItem: header and template</text>
  <rect class="head" x="12" y="38" width="990" height="30" />
  <text class="cell" x="26" y="57.5">case</text>
  <text class="cell" x="988" y="57.5" text-anchor="end">measured</text>
  <text class="cell" x="26" y="87.5">Header="File_Name": element that shows it</text>
  <text class="cell" x="988" y="87.5" text-anchor="end">AccessText, access key 'N'</text>
  <text class="cell" x="26" y="117.5">Header "File_Name" vs "A": tab widths</text>
  <text class="cell" x="988" y="117.5" text-anchor="end">65.65 / 19.74</text>
  <text class="cell" x="26" y="147.5">TabControl properties named *Template*</text>
  <text class="cell" x="988" y="147.5" text-anchor="end">SelectedContentTemplate, ContentTemplate, ItemTemplate, Template</text>
  <text class="cell" x="26" y="177.5">TabItem properties named *Template*</text>
  <text class="cell" x="988" y="177.5" text-anchor="end">HeaderTemplate, ContentTemplate, Template</text>
  <text class="cell" x="26" y="207.5">default TabItem template: VisualStateGroups on the root</text>
  <text class="cell" x="988" y="207.5" text-anchor="end">none</text>
  <text class="cell" x="26" y="237.5">default TabItem template: number of Triggers</text>
  <text class="cell" x="988" y="237.5" text-anchor="end">16</text>
  <line class="line" x1="12" y1="38" x2="1002" y2="38" />
  <line class="line" x1="12" y1="68" x2="1002" y2="68" />
  <line class="line" x1="12" y1="98" x2="1002" y2="98" />
  <line class="line" x1="12" y1="128" x2="1002" y2="128" />
  <line class="line" x1="12" y1="158" x2="1002" y2="158" />
  <line class="line" x1="12" y1="188" x2="1002" y2="188" />
  <line class="line" x1="12" y1="218" x2="1002" y2="218" />
  <line class="line" x1="12" y1="248" x2="1002" y2="248" />
  <line class="line" x1="12" y1="38" x2="12" y2="248" />
  <line class="line" x1="472" y1="38" x2="472" y2="248" />
  <line class="line" x1="1002" y1="38" x2="1002" y2="248" />
</svg>
