<svg xmlns="http://www.w3.org/2000/svg" viewBox="0 0 913 290" width="913" height="290" role="img">
  <defs>
    <style>
      .bg { fill: #ffffff; }
      .head { fill: #f5f7fb; }
      .line { stroke: #c3ccdb; stroke-width: 1; }
      .cell { font-family: Consolas, "Courier New", monospace; font-size: 13px; fill: #1f2933; }
      .title { font-family: Consolas, "Courier New", monospace; font-size: 11px; fill: #5b6673; }
    </style>
  </defs>
  <rect class="bg" x="0" y="0" width="913" height="290" />
  <text class="title" x="12" y="24">TextBox template parts, by how the theme reaches the control</text>
  <rect class="head" x="12" y="38" width="889" height="30" />
  <text class="cell" x="26" y="57.5">window</text>
  <text class="cell" x="501" y="57.5" text-anchor="end">Style applied</text>
  <text class="cell" x="765" y="57.5" text-anchor="end">named parts present</text>
  <text class="cell" x="887" y="57.5" text-anchor="end">Padding.Left</text>
  <text class="cell" x="26" y="87.5">no ThemeMode</text>
  <text class="cell" x="501" y="87.5" text-anchor="end">theme style</text>
  <text class="cell" x="765" y="87.5" text-anchor="end">PART_ContentHost</text>
  <text class="cell" x="887" y="87.5" text-anchor="end">0</text>
  <text class="cell" x="26" y="117.5">ThemeMode=Light</text>
  <text class="cell" x="501" y="117.5" text-anchor="end">implicit style</text>
  <text class="cell" x="765" y="117.5" text-anchor="end">DeleteButton, PART_ContentHost</text>
  <text class="cell" x="887" y="117.5" text-anchor="end">10</text>
  <text class="cell" x="26" y="147.5">ThemeMode=Light + implicit Style</text>
  <text class="cell" x="501" y="147.5" text-anchor="end">implicit style</text>
  <text class="cell" x="765" y="147.5" text-anchor="end">PART_ContentHost</text>
  <text class="cell" x="887" y="147.5" text-anchor="end">8</text>
  <text class="cell" x="26" y="177.5">no ThemeMode + implicit Style</text>
  <text class="cell" x="501" y="177.5" text-anchor="end">implicit style</text>
  <text class="cell" x="765" y="177.5" text-anchor="end">PART_ContentHost</text>
  <text class="cell" x="887" y="177.5" text-anchor="end">8</text>
  <text class="cell" x="26" y="207.5">merge Fluent.xaml directly</text>
  <text class="cell" x="501" y="207.5" text-anchor="end">implicit style</text>
  <text class="cell" x="765" y="207.5" text-anchor="end">DeleteButton, PART_ContentHost</text>
  <text class="cell" x="887" y="207.5" text-anchor="end">10</text>
  <text class="cell" x="26" y="237.5">merge Fluent.xaml + implicit Style</text>
  <text class="cell" x="501" y="237.5" text-anchor="end">implicit style</text>
  <text class="cell" x="765" y="237.5" text-anchor="end">PART_ContentHost</text>
  <text class="cell" x="887" y="237.5" text-anchor="end">8</text>
  <text class="cell" x="26" y="267.5">merge Fluent.xaml + implicit Style, BasedOn</text>
  <text class="cell" x="501" y="267.5" text-anchor="end">implicit style</text>
  <text class="cell" x="765" y="267.5" text-anchor="end">DeleteButton, PART_ContentHost</text>
  <text class="cell" x="887" y="267.5" text-anchor="end">8</text>
  <line class="line" x1="12" y1="38" x2="901" y2="38" />
  <line class="line" x1="12" y1="68" x2="901" y2="68" />
  <line class="line" x1="12" y1="98" x2="901" y2="98" />
  <line class="line" x1="12" y1="128" x2="901" y2="128" />
  <line class="line" x1="12" y1="158" x2="901" y2="158" />
  <line class="line" x1="12" y1="188" x2="901" y2="188" />
  <line class="line" x1="12" y1="218" x2="901" y2="218" />
  <line class="line" x1="12" y1="248" x2="901" y2="248" />
  <line class="line" x1="12" y1="278" x2="901" y2="278" />
  <line class="line" x1="12" y1="38" x2="12" y2="278" />
  <line class="line" x1="378" y1="38" x2="378" y2="278" />
  <line class="line" x1="515" y1="38" x2="515" y2="278" />
  <line class="line" x1="779" y1="38" x2="779" y2="278" />
  <line class="line" x1="901" y1="38" x2="901" y2="278" />
</svg>
