<svg xmlns="http://www.w3.org/2000/svg" viewBox="0 0 760 200" width="760" height="200" role="img">
  <defs>
    <style>
      .bg { fill: #ffffff; }
      .head { fill: #f5f7fb; }
      .line { stroke: #c3ccdb; stroke-width: 1; }
      .cell { font-family: Consolas, "Courier New", monospace; font-size: 13px; fill: #1f2933; }
      .title { font-family: Consolas, "Courier New", monospace; font-size: 11px; fill: #5b6673; }
    </style>
  </defs>
  <rect class="bg" x="0" y="0" width="760" height="200" />
  <text class="title" x="12" y="24">Slider (0 to 100): where the thumb is at Value = Maximum</text>
  <rect class="head" x="12" y="38" width="736" height="30" />
  <text class="cell" x="26" y="57.5">Orientation</text>
  <text class="cell" x="290" y="57.5" text-anchor="end">IsDirectionReversed</text>
  <text class="cell" x="734" y="57.5" text-anchor="end">thumb center (fraction of the track, from left / top)</text>
  <text class="cell" x="26" y="87.5">Horizontal</text>
  <text class="cell" x="290" y="87.5" text-anchor="end">False</text>
  <text class="cell" x="734" y="87.5" text-anchor="end">0.98 (right end)</text>
  <text class="cell" x="26" y="117.5">Horizontal</text>
  <text class="cell" x="290" y="117.5" text-anchor="end">True</text>
  <text class="cell" x="734" y="117.5" text-anchor="end">0.03 (left end)</text>
  <text class="cell" x="26" y="147.5">Vertical</text>
  <text class="cell" x="290" y="147.5" text-anchor="end">False</text>
  <text class="cell" x="734" y="147.5" text-anchor="end">0.03 (top end)</text>
  <text class="cell" x="26" y="177.5">Vertical</text>
  <text class="cell" x="290" y="177.5" text-anchor="end">True</text>
  <text class="cell" x="734" y="177.5" text-anchor="end">0.98 (bottom end)</text>
  <line class="line" x1="12" y1="38" x2="748" y2="38" />
  <line class="line" x1="12" y1="68" x2="748" y2="68" />
  <line class="line" x1="12" y1="98" x2="748" y2="98" />
  <line class="line" x1="12" y1="128" x2="748" y2="128" />
  <line class="line" x1="12" y1="158" x2="748" y2="158" />
  <line class="line" x1="12" y1="188" x2="748" y2="188" />
  <line class="line" x1="12" y1="38" x2="12" y2="188" />
  <line class="line" x1="126" y1="38" x2="126" y2="188" />
  <line class="line" x1="304" y1="38" x2="304" y2="188" />
  <line class="line" x1="748" y1="38" x2="748" y2="188" />
</svg>
