<svg xmlns="http://www.w3.org/2000/svg" viewBox="0 0 1093 380" width="1093" height="380" role="img">
  <defs>
    <style>
      .bg { fill: #ffffff; }
      .head { fill: #f5f7fb; }
      .line { stroke: #c3ccdb; stroke-width: 1; }
      .cell { font-family: Consolas, "Courier New", monospace; font-size: 13px; fill: #1f2933; }
      .title { font-family: Consolas, "Courier New", monospace; font-size: 11px; fill: #5b6673; }
    </style>
  </defs>
  <rect class="bg" x="0" y="0" width="1093" height="380" />
  <text class="title" x="12" y="24">ToolBar: styles, background, ToolBarTray bands, locking and orientation</text>
  <rect class="head" x="12" y="38" width="1069" height="30" />
  <text class="cell" x="26" y="57.5">case</text>
  <text class="cell" x="1067" y="57.5" text-anchor="end">measured</text>
  <text class="cell" x="26" y="87.5">Button / ToggleButton / ComboBox / Separator in a ToolBar: style</text>
  <text class="cell" x="1067" y="87.5" text-anchor="end">ToolBar style / ToolBar style / ToolBar style / ToolBar style</text>
  <text class="cell" x="26" y="117.5">  Separator in a horizontal ToolBar: width / height</text>
  <text class="cell" x="1067" y="117.5" text-anchor="end">1 / 17.96</text>
  <text class="cell" x="26" y="147.5">Background not set: value (source) / template border</text>
  <text class="cell" x="1067" y="147.5" text-anchor="end">#FFEEF5FD (DefaultStyle) / #FFEEF5FD</text>
  <text class="cell" x="26" y="177.5">Background LightYellow: value (source) / template border</text>
  <text class="cell" x="1067" y="177.5" text-anchor="end">#FFFFFFE0 (Local) / #FFFFFFE0</text>
  <text class="cell" x="26" y="207.5">tray, (Band, BandIndex) (0,0) (0,1) (1,0) (1,1): positions</text>
  <text class="cell" x="1067" y="207.5" text-anchor="end">(0, 0)  (147.79, 0)  (0, 30.96)  (147.79, 30.96)</text>
  <text class="cell" x="26" y="237.5">  thumb of (1,0) dragged by (250, -30): its Band / BandIndex</text>
  <text class="cell" x="1067" y="237.5" text-anchor="end">0 / 0</text>
  <text class="cell" x="26" y="267.5">ToolBarTray IsLocked=False: ToolBar's IsLocked / thumb visibility</text>
  <text class="cell" x="1067" y="267.5" text-anchor="end">False / Visible</text>
  <text class="cell" x="26" y="297.5">ToolBarTray IsLocked=True: ToolBar's IsLocked / thumb visibility</text>
  <text class="cell" x="1067" y="297.5" text-anchor="end">True / Collapsed</text>
  <text class="cell" x="26" y="327.5">tray Vertical: ToolBar.Orientation (source) / ToolBar outside a tray</text>
  <text class="cell" x="1067" y="327.5" text-anchor="end">Vertical (Default) / Horizontal</text>
  <text class="cell" x="26" y="357.5">  setting ToolBar.Orientation</text>
  <text class="cell" x="1067" y="357.5" text-anchor="end">InvalidOperationException</text>
  <line class="line" x1="12" y1="38" x2="1081" y2="38" />
  <line class="line" x1="12" y1="68" x2="1081" y2="68" />
  <line class="line" x1="12" y1="98" x2="1081" y2="98" />
  <line class="line" x1="12" y1="128" x2="1081" y2="128" />
  <line class="line" x1="12" y1="158" x2="1081" y2="158" />
  <line class="line" x1="12" y1="188" x2="1081" y2="188" />
  <line class="line" x1="12" y1="218" x2="1081" y2="218" />
  <line class="line" x1="12" y1="248" x2="1081" y2="248" />
  <line class="line" x1="12" y1="278" x2="1081" y2="278" />
  <line class="line" x1="12" y1="308" x2="1081" y2="308" />
  <line class="line" x1="12" y1="338" x2="1081" y2="338" />
  <line class="line" x1="12" y1="368" x2="1081" y2="368" />
  <line class="line" x1="12" y1="38" x2="12" y2="368" />
  <line class="line" x1="574" y1="38" x2="574" y2="368" />
  <line class="line" x1="1081" y1="38" x2="1081" y2="368" />
</svg>
