<svg xmlns="http://www.w3.org/2000/svg" viewBox="0 0 603 320" width="603" height="320" role="img">
  <defs>
    <style>
      .bg { fill: #ffffff; }
      .head { fill: #f5f7fb; }
      .line { stroke: #c3ccdb; stroke-width: 1; }
      .cell { font-family: Consolas, "Courier New", monospace; font-size: 13px; fill: #1f2933; }
      .title { font-family: Consolas, "Courier New", monospace; font-size: 11px; fill: #5b6673; }
    </style>
  </defs>
  <rect class="bg" x="0" y="0" width="603" height="320" />
  <text class="title" x="12" y="24">what SystemColors keys resolve to on this machine</text>
  <rect class="head" x="12" y="38" width="579" height="30" />
  <text class="cell" x="26" y="57.5">key</text>
  <text class="cell" x="407" y="57.5" text-anchor="end">value</text>
  <text class="cell" x="577" y="57.5" text-anchor="end">relative luminance</text>
  <text class="cell" x="26" y="87.5">Windows app mode (AppsUseLightTheme)</text>
  <text class="cell" x="407" y="87.5" text-anchor="end">dark (0)</text>
  <text class="cell" x="577" y="87.5" text-anchor="end">-</text>
  <text class="cell" x="26" y="117.5">SystemColors.WindowColor</text>
  <text class="cell" x="407" y="117.5" text-anchor="end">#FFFFFFFF</text>
  <text class="cell" x="577" y="117.5" text-anchor="end">1.00</text>
  <text class="cell" x="26" y="147.5">SystemColors.WindowTextColor</text>
  <text class="cell" x="407" y="147.5" text-anchor="end">#FF000000</text>
  <text class="cell" x="577" y="147.5" text-anchor="end">0.00</text>
  <text class="cell" x="26" y="177.5">SystemColors.ControlColor</text>
  <text class="cell" x="407" y="177.5" text-anchor="end">#FFF0F0F0</text>
  <text class="cell" x="577" y="177.5" text-anchor="end">0.87</text>
  <text class="cell" x="26" y="207.5">SystemColors.HighlightColor</text>
  <text class="cell" x="407" y="207.5" text-anchor="end">#FF0078D7</text>
  <text class="cell" x="577" y="207.5" text-anchor="end">0.18</text>
  <text class="cell" x="26" y="237.5">SystemColors.HighlightTextColor</text>
  <text class="cell" x="407" y="237.5" text-anchor="end">#FFFFFFFF</text>
  <text class="cell" x="577" y="237.5" text-anchor="end">1.00</text>
  <text class="cell" x="26" y="267.5">SystemColors.AccentColor</text>
  <text class="cell" x="407" y="267.5" text-anchor="end">#FFE2241A</text>
  <text class="cell" x="577" y="267.5" text-anchor="end">0.18</text>
  <text class="cell" x="26" y="297.5">SystemColors.GrayTextColor</text>
  <text class="cell" x="407" y="297.5" text-anchor="end">#FF6D6D6D</text>
  <text class="cell" x="577" y="297.5" text-anchor="end">0.15</text>
  <line class="line" x1="12" y1="38" x2="591" y2="38" />
  <line class="line" x1="12" y1="68" x2="591" y2="68" />
  <line class="line" x1="12" y1="98" x2="591" y2="98" />
  <line class="line" x1="12" y1="128" x2="591" y2="128" />
  <line class="line" x1="12" y1="158" x2="591" y2="158" />
  <line class="line" x1="12" y1="188" x2="591" y2="188" />
  <line class="line" x1="12" y1="218" x2="591" y2="218" />
  <line class="line" x1="12" y1="248" x2="591" y2="248" />
  <line class="line" x1="12" y1="278" x2="591" y2="278" />
  <line class="line" x1="12" y1="308" x2="591" y2="308" />
  <line class="line" x1="12" y1="38" x2="12" y2="308" />
  <line class="line" x1="323" y1="38" x2="323" y2="308" />
  <line class="line" x1="421" y1="38" x2="421" y2="308" />
  <line class="line" x1="591" y1="38" x2="591" y2="308" />
</svg>
