<svg xmlns="http://www.w3.org/2000/svg" viewBox="0 0 1116 860" width="1116" height="860" role="img">
  <defs>
    <style>
      .bg { fill: #ffffff; }
      .head { fill: #f5f7fb; }
      .line { stroke: #c3ccdb; stroke-width: 1; }
      .cell { font-family: Consolas, "Courier New", monospace; font-size: 13px; fill: #1f2933; }
      .title { font-family: Consolas, "Courier New", monospace; font-size: 11px; fill: #5b6673; }
    </style>
  </defs>
  <rect class="bg" x="0" y="0" width="1116" height="860" />
  <text class="title" x="12" y="24">TextBox: wrapping, lines, alignment and scrolling</text>
  <rect class="head" x="12" y="38" width="1092" height="30" />
  <text class="cell" x="26" y="57.5">case</text>
  <text class="cell" x="1090" y="57.5" text-anchor="end">measured</text>
  <text class="cell" x="26" y="87.5">TextWrapping=NoWrap, width 150, demo text</text>
  <text class="cell" x="1090" y="87.5" text-anchor="end">1 lines, line 1 has 53 chars, extent 385.01 / viewport 144</text>
  <text class="cell" x="26" y="117.5">TextWrapping=Wrap, width 150, demo text</text>
  <text class="cell" x="1090" y="117.5" text-anchor="end">4 lines, line 1 has 20 chars, extent 143.4 / viewport 144</text>
  <text class="cell" x="26" y="147.5">TextWrapping=WrapWithOverflow, width 150, demo text</text>
  <text class="cell" x="1090" y="147.5" text-anchor="end">2 lines, line 1 has 26 chars, extent 190.86 / viewport 144</text>
  <text class="cell" x="26" y="177.5">MinLines=1, empty</text>
  <text class="cell" x="1090" y="177.5" text-anchor="end">height 17.96</text>
  <text class="cell" x="26" y="207.5">MinLines=2, empty</text>
  <text class="cell" x="1090" y="207.5" text-anchor="end">height 17.96</text>
  <text class="cell" x="26" y="237.5">MinLines=4, empty</text>
  <text class="cell" x="1090" y="237.5" text-anchor="end">height 17.96</text>
  <text class="cell" x="26" y="267.5">MinLines=6, empty</text>
  <text class="cell" x="1090" y="267.5" text-anchor="end">height 17.96</text>
  <text class="cell" x="26" y="297.5">MinLines=4, TextWrapping=Wrap, empty</text>
  <text class="cell" x="1090" y="297.5" text-anchor="end">height 17.96</text>
  <text class="cell" x="26" y="327.5">MinLines=4, one line of text</text>
  <text class="cell" x="1090" y="327.5" text-anchor="end">height 17.96</text>
  <text class="cell" x="26" y="357.5">MinLines=4, empty, in a 150 x 300 Grid, Top</text>
  <text class="cell" x="1090" y="357.5" text-anchor="end">height 17.96</text>
  <text class="cell" x="26" y="387.5">MinLines="4" written in XAML (the demo app's markup), empty</text>
  <text class="cell" x="1090" y="387.5" text-anchor="end">height 17.96</text>
  <text class="cell" x="26" y="417.5">  then Text changed / then FontSize changed</text>
  <text class="cell" x="1090" y="417.5" text-anchor="end">height 65.84 / 71.16</text>
  <text class="cell" x="26" y="447.5">MinLines=4 set after showing: height before / after / + MaxLines=10</text>
  <text class="cell" x="1090" y="447.5" text-anchor="end">17.96 / 65.84 / 65.84</text>
  <text class="cell" x="26" y="477.5">MaxLines=2, 10 lines</text>
  <text class="cell" x="1090" y="477.5" text-anchor="end">height 33.92, vertical bar Visible</text>
  <text class="cell" x="26" y="507.5">MaxLines=4, 10 lines</text>
  <text class="cell" x="1090" y="507.5" text-anchor="end">height 65.84, vertical bar Visible</text>
  <text class="cell" x="26" y="537.5">MaxLines=6, 10 lines</text>
  <text class="cell" x="1090" y="537.5" text-anchor="end">height 97.77, vertical bar Visible</text>
  <text class="cell" x="26" y="567.5">Height=60, 10 lines, VerticalScrollBarVisibility not set</text>
  <text class="cell" x="1090" y="567.5" text-anchor="end">bar Collapsed, extent 159.6 / viewport 58</text>
  <text class="cell" x="26" y="597.5">Height=60, 10 lines, VerticalScrollBarVisibility Auto</text>
  <text class="cell" x="1090" y="597.5" text-anchor="end">bar Visible, extent 159.6 / viewport 58</text>
  <text class="cell" x="26" y="627.5">AcceptsReturn, 10 lines, inside a StackPanel (no height limit)</text>
  <text class="cell" x="1090" y="627.5" text-anchor="end">height 161.6</text>
  <text class="cell" x="26" y="657.5">TextAlignment=Left, "123" in width 200</text>
  <text class="cell" x="1090" y="657.5" text-anchor="end">first character at x 3</text>
  <text class="cell" x="26" y="687.5">TextAlignment=Center, "123" in width 200</text>
  <text class="cell" x="1090" y="687.5" text-anchor="end">first character at x 90.3</text>
  <text class="cell" x="26" y="717.5">TextAlignment=Right, "123" in width 200</text>
  <text class="cell" x="1090" y="717.5" text-anchor="end">first character at x 177.59</text>
  <text class="cell" x="26" y="747.5">TextDecorations="Underline, Strikethrough"</text>
  <text class="cell" x="1090" y="747.5" text-anchor="end">2 decorations: Underline, Strikethrough</text>
  <text class="cell" x="26" y="777.5">ScrollToEnd() from a worker thread</text>
  <text class="cell" x="1090" y="777.5" text-anchor="end">InvalidOperationException</text>
  <text class="cell" x="26" y="807.5">ScrollToEnd() on the UI thread: VerticalOffset / scrollable height</text>
  <text class="cell" x="1090" y="807.5" text-anchor="end">101.6 / 101.6</text>
  <text class="cell" x="26" y="837.5">default template: IsReadOnly triggers / Background, BorderBrush</text>
  <text class="cell" x="1090" y="837.5" text-anchor="end">0 / #FFFFFFFF #FFABADB3 (normal), #FFFFFFFF #FFABADB3 (read-only)</text>
  <line class="line" x1="12" y1="38" x2="1104" y2="38" />
  <line class="line" x1="12" y1="68" x2="1104" y2="68" />
  <line class="line" x1="12" y1="98" x2="1104" y2="98" />
  <line class="line" x1="12" y1="128" x2="1104" y2="128" />
  <line class="line" x1="12" y1="158" x2="1104" y2="158" />
  <line class="line" x1="12" y1="188" x2="1104" y2="188" />
  <line class="line" x1="12" y1="218" x2="1104" y2="218" />
  <line class="line" x1="12" y1="248" x2="1104" y2="248" />
  <line class="line" x1="12" y1="278" x2="1104" y2="278" />
  <line class="line" x1="12" y1="308" x2="1104" y2="308" />
  <line class="line" x1="12" y1="338" x2="1104" y2="338" />
  <line class="line" x1="12" y1="368" x2="1104" y2="368" />
  <line class="line" x1="12" y1="398" x2="1104" y2="398" />
  <line class="line" x1="12" y1="428" x2="1104" y2="428" />
  <line class="line" x1="12" y1="458" x2="1104" y2="458" />
  <line class="line" x1="12" y1="488" x2="1104" y2="488" />
  <line class="line" x1="12" y1="518" x2="1104" y2="518" />
  <line class="line" x1="12" y1="548" x2="1104" y2="548" />
  <line class="line" x1="12" y1="578" x2="1104" y2="578" />
  <line class="line" x1="12" y1="608" x2="1104" y2="608" />
  <line class="line" x1="12" y1="638" x2="1104" y2="638" />
  <line class="line" x1="12" y1="668" x2="1104" y2="668" />
  <line class="line" x1="12" y1="698" x2="1104" y2="698" />
  <line class="line" x1="12" y1="728" x2="1104" y2="728" />
  <line class="line" x1="12" y1="758" x2="1104" y2="758" />
  <line class="line" x1="12" y1="788" x2="1104" y2="788" />
  <line class="line" x1="12" y1="818" x2="1104" y2="818" />
  <line class="line" x1="12" y1="848" x2="1104" y2="848" />
  <line class="line" x1="12" y1="38" x2="12" y2="848" />
  <line class="line" x1="566" y1="38" x2="566" y2="848" />
  <line class="line" x1="1104" y1="38" x2="1104" y2="848" />
</svg>
